solid the_design
facet normal -0.0 -1.0 -0.0
    outer loop
        vertex 2.4 0.0 0.33999999999999997
        vertex -0.1 0.0 0.04
        vertex 2.4 0.0 0.04
    endloop
endfacet
facet normal -0.0 -1.0 -0.0
    outer loop
        vertex 2.4 0.0 0.33999999999999997
        vertex -0.1 0.0 0.33999999999999997
        vertex -0.1 0.0 0.04
    endloop
endfacet
facet normal -1.0 -0.0 -0.0
    outer loop
        vertex -0.1 0.0 0.04
        vertex -0.1 0.4166666666666667 0.33999999999999997
        vertex -0.1 0.4166666666666667 0.04
    endloop
endfacet
facet normal -1.0 -0.0 -0.0
    outer loop
        vertex -0.1 0.0 0.04
        vertex -0.1 0.0 0.33999999999999997
        vertex -0.1 0.4166666666666667 0.33999999999999997
    endloop
endfacet
facet normal -1.0 -0.0 -0.0
    outer loop
        vertex -0.1 0.0 0.04
        vertex -0.1 0.0 0.33999999999999997
        vertex -0.1 0.0 0.33999999999999997
    endloop
endfacet
facet normal -1.0 -0.0 -0.0
    outer loop
        vertex -0.1 0.0 0.04
        vertex -0.1 0.0 0.33999999999999997
        vertex -0.1 0.0 0.04
    endloop
endfacet
facet normal -0.0 -1.0 -0.0
    outer loop
        vertex -0.1 0.0 0.04
        vertex 2.4 0.0 0.33999999999999997
        vertex -0.1 0.0 0.33999999999999997
    endloop
endfacet
facet normal -0.0 -1.0 -0.0
    outer loop
        vertex -0.1 0.0 0.04
        vertex 2.4 0.0 0.04
        vertex 2.4 0.0 0.33999999999999997
    endloop
endfacet
facet normal -0.0 1.0 -0.0
    outer loop
        vertex -0.1 0.4166666666666667 0.04
        vertex 2.4 0.4166666666666667 0.33999999999999997
        vertex 2.4 0.4166666666666667 0.04
    endloop
endfacet
facet normal -0.0 1.0 -0.0
    outer loop
        vertex -0.1 0.4166666666666667 0.04
        vertex -0.1 0.4166666666666667 0.33999999999999997
        vertex 2.4 0.4166666666666667 0.33999999999999997
    endloop
endfacet
endsolid the_design