solid the_design
facet normal -0.0 -0.0 1.0
    outer loop
        vertex 2.4 0.03 0.04
        vertex -0.1 0.0 0.04
        vertex 2.4 0.0 0.04
    endloop
endfacet
facet normal -0.0 -0.0 1.0
    outer loop
        vertex 2.4 0.03 0.04
        vertex -0.1 0.03 0.04
        vertex -0.1 0.0 0.04
    endloop
endfacet
facet normal 1.0 -0.0 -0.0
    outer loop
        vertex 2.4 0.03 0.04
        vertex 2.4 0.0 0.04
        vertex 2.4 0.0 0.0
    endloop
endfacet
facet normal 1.0 -0.0 -0.0
    outer loop
        vertex 2.4 0.03 0.04
        vertex 2.4 0.0 0.0
        vertex 2.4 0.03 0.0
    endloop
endfacet
facet normal -0.0 1.0 -0.0
    outer loop
        vertex 2.4 0.03 0.04
        vertex -0.1 0.03 0.0
        vertex -0.1 0.03 0.04
    endloop
endfacet
facet normal -0.0 1.0 -0.0
    outer loop
        vertex 2.4 0.03 0.04
        vertex 2.4 0.03 0.0
        vertex -0.1 0.03 0.0
    endloop
endfacet
facet normal -1.0 -0.0 -0.0
    outer loop
        vertex -0.1 0.0 0.0
        vertex -0.1 0.03 0.04
        vertex -0.1 0.03 0.0
    endloop
endfacet
facet normal -1.0 -0.0 -0.0
    outer loop
        vertex -0.1 0.0 0.0
        vertex -0.1 0.0 0.04
        vertex -0.1 0.03 0.04
    endloop
endfacet
facet normal -0.0 -1.0 -0.0
    outer loop
        vertex -0.1 0.0 0.0
        vertex 2.4 0.0 0.0
        vertex 2.4 0.0 0.04
    endloop
endfacet
facet normal -0.0 -1.0 -0.0
    outer loop
        vertex -0.1 0.0 0.0
        vertex 2.4 0.0 0.04
        vertex -0.1 0.0 0.04
    endloop
endfacet
facet normal -0.0 -0.0 -1.0
    outer loop
        vertex -0.1 0.0 0.0
        vertex -0.1 0.03 0.0
        vertex 2.4 0.03 0.0
    endloop
endfacet
facet normal -0.0 -0.0 -1.0
    outer loop
        vertex -0.1 0.0 0.0
        vertex 2.4 0.03 0.0
        vertex 2.4 0.0 0.0
    endloop
endfacet
facet normal -0.0 -0.0 1.0
    outer loop
        vertex 2.4 0.41666666666666674 0.04
        vertex -0.1 0.3866666666666667 0.04
        vertex 2.4 0.3866666666666667 0.04
    endloop
endfacet
facet normal -0.0 -0.0 1.0
    outer loop
        vertex 2.4 0.41666666666666674 0.04
        vertex -0.1 0.41666666666666674 0.04
        vertex -0.1 0.3866666666666667 0.04
    endloop
endfacet
facet normal 1.0 -0.0 -0.0
    outer loop
        vertex 2.4 0.41666666666666674 0.04
        vertex 2.4 0.3866666666666667 0.04
        vertex 2.4 0.3866666666666667 0.0
    endloop
endfacet
facet normal 1.0 -0.0 -0.0
    outer loop
        vertex 2.4 0.41666666666666674 0.04
        vertex 2.4 0.3866666666666667 0.0
        vertex 2.4 0.41666666666666674 0.0
    endloop
endfacet
facet normal -0.0 1.0 -0.0
    outer loop
        vertex 2.4 0.41666666666666674 0.04
        vertex -0.1 0.41666666666666674 0.0
        vertex -0.1 0.41666666666666674 0.04
    endloop
endfacet
facet normal -0.0 1.0 -0.0
    outer loop
        vertex 2.4 0.41666666666666674 0.04
        vertex 2.4 0.41666666666666674 0.0
        vertex -0.1 0.41666666666666674 0.0
    endloop
endfacet
facet normal -1.0 -0.0 -0.0
    outer loop
        vertex -0.1 0.3866666666666667 0.0
        vertex -0.1 0.41666666666666674 0.04
        vertex -0.1 0.41666666666666674 0.0
    endloop
endfacet
facet normal -1.0 -0.0 -0.0
    outer loop
        vertex -0.1 0.3866666666666667 0.0
        vertex -0.1 0.3866666666666667 0.04
        vertex -0.1 0.41666666666666674 0.04
    endloop
endfacet
facet normal -0.0 -1.0 -0.0
    outer loop
        vertex -0.1 0.3866666666666667 0.0
        vertex 2.4 0.3866666666666667 0.0
        vertex 2.4 0.3866666666666667 0.04
    endloop
endfacet
facet normal -0.0 -1.0 -0.0
    outer loop
        vertex -0.1 0.3866666666666667 0.0
        vertex 2.4 0.3866666666666667 0.04
        vertex -0.1 0.3866666666666667 0.04
    endloop
endfacet
facet normal -0.0 -0.0 -1.0
    outer loop
        vertex -0.1 0.3866666666666667 0.0
        vertex -0.1 0.41666666666666674 0.0
        vertex 2.4 0.41666666666666674 0.0
    endloop
endfacet
facet normal -0.0 -0.0 -1.0
    outer loop
        vertex -0.1 0.3866666666666667 0.0
        vertex 2.4 0.41666666666666674 0.0
        vertex 2.4 0.3866666666666667 0.0
    endloop
endfacet
facet normal -0.0 -1.0 -0.0
    outer loop
        vertex -0.1 0.0 0.04
        vertex -0.07 0.0 0.0
        vertex -0.07 0.0 0.04
    endloop
endfacet
facet normal -0.0 -1.0 -0.0
    outer loop
        vertex -0.1 0.0 0.04
        vertex -0.1 0.0 0.0
        vertex -0.07 0.0 0.0
    endloop
endfacet
facet normal -0.0 -0.0 1.0
    outer loop
        vertex -0.1 0.0 0.04
        vertex -0.07 0.4166666666666667 0.04
        vertex -0.1 0.4166666666666667 0.04
    endloop
endfacet
facet normal -0.0 -0.0 1.0
    outer loop
        vertex -0.1 0.0 0.04
        vertex -0.07 0.0 0.04
        vertex -0.07 0.4166666666666667 0.04
    endloop
endfacet
facet normal -1.0 -0.0 -0.0
    outer loop
        vertex -0.1 0.0 0.04
        vertex -0.1 0.4166666666666667 0.04
        vertex -0.1 0.4166666666666667 0.0
    endloop
endfacet
facet normal -1.0 -0.0 -0.0
    outer loop
        vertex -0.1 0.0 0.04
        vertex -0.1 0.4166666666666667 0.0
        vertex -0.1 0.0 0.0
    endloop
endfacet
facet normal 1.0 -0.0 -0.0
    outer loop
        vertex -0.07 0.4166666666666667 0.0
        vertex -0.07 0.4166666666666667 0.04
        vertex -0.07 0.0 0.04
    endloop
endfacet
facet normal 1.0 -0.0 -0.0
    outer loop
        vertex -0.07 0.4166666666666667 0.0
        vertex -0.07 0.0 0.04
        vertex -0.07 0.0 0.0
    endloop
endfacet
facet normal -0.0 1.0 -0.0
    outer loop
        vertex -0.07 0.4166666666666667 0.0
        vertex -0.1 0.4166666666666667 0.04
        vertex -0.07 0.4166666666666667 0.04
    endloop
endfacet
facet normal -0.0 1.0 -0.0
    outer loop
        vertex -0.07 0.4166666666666667 0.0
        vertex -0.1 0.4166666666666667 0.0
        vertex -0.1 0.4166666666666667 0.04
    endloop
endfacet
facet normal -0.0 -0.0 -1.0
    outer loop
        vertex -0.07 0.4166666666666667 0.0
        vertex -0.1 0.0 0.0
        vertex -0.1 0.4166666666666667 0.0
    endloop
endfacet
facet normal -0.0 -0.0 -1.0
    outer loop
        vertex -0.07 0.4166666666666667 0.0
        vertex -0.07 0.0 0.0
        vertex -0.1 0.0 0.0
    endloop
endfacet
facet normal -0.0 -1.0 -0.0
    outer loop
        vertex 0.7233333333333332 0.0 0.04
        vertex 0.7533333333333332 0.0 0.0
        vertex 0.7533333333333332 0.0 0.04
    endloop
endfacet
facet normal -0.0 -1.0 -0.0
    outer loop
        vertex 0.7233333333333332 0.0 0.04
        vertex 0.7233333333333332 0.0 0.0
        vertex 0.7533333333333332 0.0 0.0
    endloop
endfacet
facet normal -0.0 -0.0 1.0
    outer loop
        vertex 0.7233333333333332 0.0 0.04
        vertex 0.7533333333333332 0.4166666666666667 0.04
        vertex 0.7233333333333332 0.4166666666666667 0.04
    endloop
endfacet
facet normal -0.0 -0.0 1.0
    outer loop
        vertex 0.7233333333333332 0.0 0.04
        vertex 0.7533333333333332 0.0 0.04
        vertex 0.7533333333333332 0.4166666666666667 0.04
    endloop
endfacet
facet normal -1.0 -0.0 -0.0
    outer loop
        vertex 0.7233333333333332 0.0 0.04
        vertex 0.7233333333333332 0.4166666666666667 0.04
        vertex 0.7233333333333332 0.4166666666666667 0.0
    endloop
endfacet
facet normal -1.0 -0.0 -0.0
    outer loop
        vertex 0.7233333333333332 0.0 0.04
        vertex 0.7233333333333332 0.4166666666666667 0.0
        vertex 0.7233333333333332 0.0 0.0
    endloop
endfacet
facet normal 1.0 -0.0 -0.0
    outer loop
        vertex 0.7533333333333332 0.4166666666666667 0.0
        vertex 0.7533333333333332 0.4166666666666667 0.04
        vertex 0.7533333333333332 0.0 0.04
    endloop
endfacet
facet normal 1.0 -0.0 -0.0
    outer loop
        vertex 0.7533333333333332 0.4166666666666667 0.0
        vertex 0.7533333333333332 0.0 0.04
        vertex 0.7533333333333332 0.0 0.0
    endloop
endfacet
facet normal -0.0 1.0 -0.0
    outer loop
        vertex 0.7533333333333332 0.4166666666666667 0.0
        vertex 0.7233333333333332 0.4166666666666667 0.04
        vertex 0.7533333333333332 0.4166666666666667 0.04
    endloop
endfacet
facet normal -0.0 1.0 -0.0
    outer loop
        vertex 0.7533333333333332 0.4166666666666667 0.0
        vertex 0.7233333333333332 0.4166666666666667 0.0
        vertex 0.7233333333333332 0.4166666666666667 0.04
    endloop
endfacet
facet normal -0.0 -0.0 -1.0
    outer loop
        vertex 0.7533333333333332 0.4166666666666667 0.0
        vertex 0.7233333333333332 0.0 0.0
        vertex 0.7233333333333332 0.4166666666666667 0.0
    endloop
endfacet
facet normal -0.0 -0.0 -1.0
    outer loop
        vertex 0.7533333333333332 0.4166666666666667 0.0
        vertex 0.7533333333333332 0.0 0.0
        vertex 0.7233333333333332 0.0 0.0
    endloop
endfacet
facet normal -0.0 -1.0 -0.0
    outer loop
        vertex 1.5466666666666664 0.0 0.04
        vertex 1.5766666666666664 0.0 0.0
        vertex 1.5766666666666664 0.0 0.04
    endloop
endfacet
facet normal -0.0 -1.0 -0.0
    outer loop
        vertex 1.5466666666666664 0.0 0.04
        vertex 1.5466666666666664 0.0 0.0
        vertex 1.5766666666666664 0.0 0.0
    endloop
endfacet
facet normal -0.0 -0.0 1.0
    outer loop
        vertex 1.5466666666666664 0.0 0.04
        vertex 1.5766666666666664 0.4166666666666667 0.04
        vertex 1.5466666666666664 0.4166666666666667 0.04
    endloop
endfacet
facet normal -0.0 -0.0 1.0
    outer loop
        vertex 1.5466666666666664 0.0 0.04
        vertex 1.5766666666666664 0.0 0.04
        vertex 1.5766666666666664 0.4166666666666667 0.04
    endloop
endfacet
facet normal -1.0 -0.0 -0.0
    outer loop
        vertex 1.5466666666666664 0.0 0.04
        vertex 1.5466666666666664 0.4166666666666667 0.04
        vertex 1.5466666666666664 0.4166666666666667 0.0
    endloop
endfacet
facet normal -1.0 -0.0 -0.0
    outer loop
        vertex 1.5466666666666664 0.0 0.04
        vertex 1.5466666666666664 0.4166666666666667 0.0
        vertex 1.5466666666666664 0.0 0.0
    endloop
endfacet
facet normal 1.0 -0.0 -0.0
    outer loop
        vertex 1.5766666666666664 0.4166666666666667 0.0
        vertex 1.5766666666666664 0.4166666666666667 0.04
        vertex 1.5766666666666664 0.0 0.04
    endloop
endfacet
facet normal 1.0 -0.0 -0.0
    outer loop
        vertex 1.5766666666666664 0.4166666666666667 0.0
        vertex 1.5766666666666664 0.0 0.04
        vertex 1.5766666666666664 0.0 0.0
    endloop
endfacet
facet normal -0.0 1.0 -0.0
    outer loop
        vertex 1.5766666666666664 0.4166666666666667 0.0
        vertex 1.5466666666666664 0.4166666666666667 0.04
        vertex 1.5766666666666664 0.4166666666666667 0.04
    endloop
endfacet
facet normal -0.0 1.0 -0.0
    outer loop
        vertex 1.5766666666666664 0.4166666666666667 0.0
        vertex 1.5466666666666664 0.4166666666666667 0.0
        vertex 1.5466666666666664 0.4166666666666667 0.04
    endloop
endfacet
facet normal -0.0 -0.0 -1.0
    outer loop
        vertex 1.5766666666666664 0.4166666666666667 0.0
        vertex 1.5466666666666664 0.0 0.0
        vertex 1.5466666666666664 0.4166666666666667 0.0
    endloop
endfacet
facet normal -0.0 -0.0 -1.0
    outer loop
        vertex 1.5766666666666664 0.4166666666666667 0.0
        vertex 1.5766666666666664 0.0 0.0
        vertex 1.5466666666666664 0.0 0.0
    endloop
endfacet
facet normal -0.0 -1.0 -0.0
    outer loop
        vertex 2.37 0.0 0.04
        vertex 2.4 0.0 0.0
        vertex 2.4 0.0 0.04
    endloop
endfacet
facet normal -0.0 -1.0 -0.0
    outer loop
        vertex 2.37 0.0 0.04
        vertex 2.37 0.0 0.0
        vertex 2.4 0.0 0.0
    endloop
endfacet
facet normal -0.0 -0.0 1.0
    outer loop
        vertex 2.37 0.0 0.04
        vertex 2.4 0.4166666666666667 0.04
        vertex 2.37 0.4166666666666667 0.04
    endloop
endfacet
facet normal -0.0 -0.0 1.0
    outer loop
        vertex 2.37 0.0 0.04
        vertex 2.4 0.0 0.04
        vertex 2.4 0.4166666666666667 0.04
    endloop
endfacet
facet normal -1.0 -0.0 -0.0
    outer loop
        vertex 2.37 0.0 0.04
        vertex 2.37 0.4166666666666667 0.04
        vertex 2.37 0.4166666666666667 0.0
    endloop
endfacet
facet normal -1.0 -0.0 -0.0
    outer loop
        vertex 2.37 0.0 0.04
        vertex 2.37 0.4166666666666667 0.0
        vertex 2.37 0.0 0.0
    endloop
endfacet
facet normal 1.0 -0.0 -0.0
    outer loop
        vertex 2.4 0.4166666666666667 0.0
        vertex 2.4 0.4166666666666667 0.04
        vertex 2.4 0.0 0.04
    endloop
endfacet
facet normal 1.0 -0.0 -0.0
    outer loop
        vertex 2.4 0.4166666666666667 0.0
        vertex 2.4 0.0 0.04
        vertex 2.4 0.0 0.0
    endloop
endfacet
facet normal -0.0 1.0 -0.0
    outer loop
        vertex 2.4 0.4166666666666667 0.0
        vertex 2.37 0.4166666666666667 0.04
        vertex 2.4 0.4166666666666667 0.04
    endloop
endfacet
facet normal -0.0 1.0 -0.0
    outer loop
        vertex 2.4 0.4166666666666667 0.0
        vertex 2.37 0.4166666666666667 0.0
        vertex 2.37 0.4166666666666667 0.04
    endloop
endfacet
facet normal -0.0 -0.0 -1.0
    outer loop
        vertex 2.4 0.4166666666666667 0.0
        vertex 2.37 0.0 0.0
        vertex 2.37 0.4166666666666667 0.0
    endloop
endfacet
facet normal -0.0 -0.0 -1.0
    outer loop
        vertex 2.4 0.4166666666666667 0.0
        vertex 2.4 0.0 0.0
        vertex 2.37 0.0 0.0
    endloop
endfacet
endsolid the_design