solid the_design
facet normal -0.0 -0.0 1.0
    outer loop
        vertex 0.0 1.0 3.0
        vertex 4.5 0.0 3.0
        vertex 4.5 1.0 3.0
    endloop
endfacet
facet normal -0.0 -0.0 1.0
    outer loop
        vertex 0.0 1.0 3.0
        vertex 0.0 0.0 3.0
        vertex 4.5 0.0 3.0
    endloop
endfacet
facet normal -0.0 1.0 -0.0
    outer loop
        vertex 0.0 1.0 3.0
        vertex 4.5 1.0 3.0
        vertex 4.5 1.0 0.0
    endloop
endfacet
facet normal -0.0 1.0 -0.0
    outer loop
        vertex 0.0 1.0 3.0
        vertex 4.5 1.0 0.0
        vertex 0.0 1.0 0.0
    endloop
endfacet
facet normal -0.0 -1.0 -0.0
    outer loop
        vertex 0.0 0.0 0.0
        vertex 4.5 0.0 0.0
        vertex 4.5 0.0 3.0
    endloop
endfacet
facet normal -0.0 -1.0 -0.0
    outer loop
        vertex 0.0 0.0 0.0
        vertex 4.5 0.0 3.0
        vertex 0.0 0.0 3.0
    endloop
endfacet
facet normal -1.0 -0.0 -0.0
    outer loop
        vertex 0.0 0.0 0.0
        vertex 0.0 0.0 3.0
        vertex 0.0 1.0 3.0
    endloop
endfacet
facet normal -1.0 -0.0 -0.0
    outer loop
        vertex 0.0 0.0 0.0
        vertex 0.0 1.0 3.0
        vertex 0.0 1.0 0.0
    endloop
endfacet
facet normal 1.0 -0.0 -0.0
    outer loop
        vertex 4.5 0.0 0.0
        vertex 4.5 1.0 3.0
        vertex 4.5 0.0 3.0
    endloop
endfacet
facet normal 1.0 -0.0 -0.0
    outer loop
        vertex 4.5 0.0 0.0
        vertex 4.5 1.0 0.0
        vertex 4.5 1.0 3.0
    endloop
endfacet
facet normal -0.0 -0.0 -1.0
    outer loop
        vertex 0.0 0.0 0.0
        vertex 4.5 1.0 0.0
        vertex 4.5 0.0 0.0
    endloop
endfacet
facet normal -0.0 -0.0 -1.0
    outer loop
        vertex 0.0 0.0 0.0
        vertex 0.0 1.0 0.0
        vertex 4.5 1.0 0.0
    endloop
endfacet
facet normal -0.0 -0.0 1.0
    outer loop
        vertex 5.0 1.0 3.0
        vertex 9.5 0.0 3.0
        vertex 9.5 1.0 3.0
    endloop
endfacet
facet normal -0.0 -0.0 1.0
    outer loop
        vertex 5.0 1.0 3.0
        vertex 5.0 0.0 3.0
        vertex 9.5 0.0 3.0
    endloop
endfacet
facet normal -0.0 1.0 -0.0
    outer loop
        vertex 5.0 1.0 3.0
        vertex 9.5 1.0 3.0
        vertex 9.5 1.0 0.0
    endloop
endfacet
facet normal -0.0 1.0 -0.0
    outer loop
        vertex 5.0 1.0 3.0
        vertex 9.5 1.0 0.0
        vertex 5.0 1.0 0.0
    endloop
endfacet
facet normal -0.0 -1.0 -0.0
    outer loop
        vertex 5.0 0.0 0.0
        vertex 9.5 0.0 0.0
        vertex 9.5 0.0 3.0
    endloop
endfacet
facet normal -0.0 -1.0 -0.0
    outer loop
        vertex 5.0 0.0 0.0
        vertex 9.5 0.0 3.0
        vertex 5.0 0.0 3.0
    endloop
endfacet
facet normal -1.0 -0.0 -0.0
    outer loop
        vertex 5.0 0.0 0.0
        vertex 5.0 0.0 3.0
        vertex 5.0 1.0 3.0
    endloop
endfacet
facet normal -1.0 -0.0 -0.0
    outer loop
        vertex 5.0 0.0 0.0
        vertex 5.0 1.0 3.0
        vertex 5.0 1.0 0.0
    endloop
endfacet
facet normal 1.0 -0.0 -0.0
    outer loop
        vertex 9.5 0.0 0.0
        vertex 9.5 1.0 3.0
        vertex 9.5 0.0 3.0
    endloop
endfacet
facet normal 1.0 -0.0 -0.0
    outer loop
        vertex 9.5 0.0 0.0
        vertex 9.5 1.0 0.0
        vertex 9.5 1.0 3.0
    endloop
endfacet
facet normal -0.0 -0.0 -1.0
    outer loop
        vertex 5.0 0.0 0.0
        vertex 9.5 1.0 0.0
        vertex 9.5 0.0 0.0
    endloop
endfacet
facet normal -0.0 -0.0 -1.0
    outer loop
        vertex 5.0 0.0 0.0
        vertex 5.0 1.0 0.0
        vertex 9.5 1.0 0.0
    endloop
endfacet
endsolid the_design